<svg xmlns:xlink="http://www.w3.org/1999/xlink" ed:hSpacing="30" xmlns:ed="https://www.edrawsoft.cn/xml/2017/SVGExtensions/" width="1208" viewBox="0 0 1208 1234" xmlns:ev="http://www.w3.org/2001/xml-events" ed:vSpacing="30" xmlns="http://www.w3.org/2000/svg" height="1234" id="page100" ed:name="页面-1"><style type="text/css"><![CDATA[
g[ed\:togtopicid],g[ed\:hyperlink],g[ed\:comment],g[ed\:note] {cursor:pointer;}
g[id] {-moz-user-select: none;-ms-user-select: none;user-select: none;}
svg text::selection,svg tspan::selection{background-color: #4285f4;color: #ffffff;fill: #ffffff;}
.st1 {fill:#303030;font-family:Microsoft YaHei;font-size:10.5pt}
.st2 {fill:#303030;font-family:Microsoft YaHei;font-size:9.75pt}
]]></style><defs/><rect width="1208" x="0" height="1234" y="0" fill="#ffffff"/><path stroke="#44488c" d="M-58,227.8C-47.4,33.6,-12.3,-254.3,64.8,-254.3" stroke-width="3" ed:parentid="101" id="103" ed:tosuperid="102" fill="none" transform="matrix(1,0,0,1,154.27,337.09)" stroke-linejoin="round" stroke-linecap="round"/><path stroke="#ff7c78" d="M-54,134.2C-42.7,11.8,-8.3,-160.7,64.8,-160.7" stroke-width="3" ed:parentid="101" id="105" ed:tosuperid="104" fill="none" transform="matrix(1,0,0,1,154.27,430.72)" stroke-linejoin="round" stroke-linecap="round"/><path stroke="#46ba7d" d="M-26.8,-20.1C-13.4,12,14.6,46.6,64.8,46.6" stroke-width="3" ed:parentid="101" id="107" ed:tosuperid="106" fill="none" transform="matrix(1,0,0,1,154.27,638)" stroke-linejoin="round" stroke-linecap="round"/><path stroke="#44488c" d="M-13.5,25.1L0,25.1L0,-19.1C0,-22.4,2.7,-25.1,6,-25.1L13.5,-25.1" ed:parentid="102" id="109" ed:tosuperid="108" fill="none" transform="matrix(1,0,0,1,341.56,57.63)" stroke-linejoin="round" stroke-linecap="round"/><path stroke="#44488c" d="M0,8.4L0,-2.4C0,-5.7,2.7,-8.4,6,-8.4L13.5,-8.4" ed:parentid="102" id="111" ed:tosuperid="110" fill="none" transform="matrix(1,0,0,1,341.56,74.38)" stroke-linejoin="round" stroke-linecap="round"/><path stroke="#44488c" d="M0,-25.1L0,19.1C0,22.4,2.7,25.1,6,25.1L13.5,25.1" ed:parentid="102" id="113" ed:tosuperid="112" fill="none" transform="matrix(1,0,0,1,341.56,107.88)" stroke-linejoin="round" stroke-linecap="round"/><path stroke="#44488c" d="M-13.5,16.8L0,16.8L0,-10.8C0,-14.1,2.7,-16.8,6,-16.8L13.5,-16.8" ed:parentid="112" id="115" ed:tosuperid="114" fill="none" transform="matrix(1,0,0,1,414.96,116.25)" stroke-linejoin="round" stroke-linecap="round"/><path stroke="#44488c" d="M0,0C0,0,2.7,0,6,0L13.5,0" ed:parentid="112" id="117" ed:tosuperid="116" fill="none" transform="matrix(1,0,0,1,414.96,133)" stroke-linejoin="round" stroke-linecap="round"/><path stroke="#44488c" d="M0,-16.8L0,10.8C0,14.1,2.7,16.8,6,16.8L13.5,16.8" ed:parentid="112" id="120" ed:tosuperid="119" fill="none" transform="matrix(1,0,0,1,414.96,149.75)" stroke-linejoin="round" stroke-linecap="round"/><path stroke="#ff7c78" d="M-13.5,21.8L0,21.8L0,-15.8C0,-19.1,2.7,-21.8,6,-21.8L13.5,-21.8" ed:parentid="104" id="122" ed:tosuperid="121" fill="none" transform="matrix(1,0,0,1,341.56,248.25)" stroke-linejoin="round" stroke-linecap="round"/><path stroke="#ff7c78" d="M0,-21.7L0,15.7C0,19.1,2.7,21.7,6,21.7L13.5,21.7" ed:parentid="104" id="124" ed:tosuperid="123" fill="none" transform="matrix(1,0,0,1,341.56,291.75)" stroke-linejoin="round" stroke-linecap="round"/><path stroke="#ff7c78" d="M-13.5,26.7L0,26.7L0,-20.7C0,-24.1,2.7,-26.7,6,-26.7L13.5,-26.7" ed:parentid="123" id="126" ed:tosuperid="125" fill="none" transform="matrix(1,0,0,1,414.96,286.75)" stroke-linejoin="round" stroke-linecap="round"/><path stroke="#ff7c78" d="M0,10L0,-4C0,-7.3,2.7,-10,6,-10L13.5,-10" ed:parentid="123" id="128" ed:tosuperid="127" fill="none" transform="matrix(1,0,0,1,414.96,303.5)" stroke-linejoin="round" stroke-linecap="round"/><path stroke="#ff7c78" d="M0,-6.8L0,0.8C0,4.1,2.7,6.8,6,6.8L13.5,6.8" ed:parentid="123" id="130" ed:tosuperid="129" fill="none" transform="matrix(1,0,0,1,414.96,320.25)" stroke-linejoin="round" stroke-linecap="round"/><path stroke="#ff7c78" d="M0,-26.8L0,20.8C0,24.1,2.7,26.8,6,26.8L13.5,26.8" ed:parentid="123" id="132" ed:tosuperid="131" fill="none" transform="matrix(1,0,0,1,414.96,340.25)" stroke-linejoin="round" stroke-linecap="round"/><path stroke="#46ba7d" d="M-13.5,46.2L0,46.2L0,-40.2C0,-43.5,2.7,-46.2,6,-46.2L13.5,-46.2" ed:parentid="106" id="134" ed:tosuperid="133" fill="none" transform="matrix(1,0,0,1,341.56,638.35)" stroke-linejoin="round" stroke-linecap="round"/><path stroke="#46ba7d" d="M-13.5,70.9L0,70.9L0,-64.9C0,-68.3,2.7,-70.9,6,-70.9L13.5,-70.9" ed:parentid="133" id="136" ed:tosuperid="135" fill="none" transform="matrix(1,0,0,1,414.96,521.19)" stroke-linejoin="round" stroke-linecap="round"/><path stroke="#46ba7d" d="M-13.5,8.4L0,8.4L0,-2.4C0,-5.7,2.7,-8.4,6,-8.4L13.5,-8.4" ed:parentid="135" id="138" ed:tosuperid="137" fill="none" transform="matrix(1,0,0,1,600.36,441.87)" stroke-linejoin="round" stroke-linecap="round"/><path stroke="#46ba7d" d="M0,-8.4L0,2.4C0,5.7,2.7,8.4,6,8.4L13.5,8.4" ed:parentid="135" id="140" ed:tosuperid="139" fill="none" transform="matrix(1,0,0,1,600.36,458.62)" stroke-linejoin="round" stroke-linecap="round"/><path stroke="#46ba7d" d="M0,-46.2L0,40.2C0,43.5,2.7,46.2,6,46.2L13.5,46.2" ed:parentid="106" id="142" ed:tosuperid="141" fill="none" transform="matrix(1,0,0,1,341.56,730.78)" stroke-linejoin="round" stroke-linecap="round"/><path stroke="#46ba7d" d="M-13.5,0L0,0C0,0,2.7,0,6,0L13.5,0" ed:parentid="141" id="144" ed:tosuperid="143" fill="none" transform="matrix(1,0,0,1,414.96,777)" stroke-linejoin="round" stroke-linecap="round"/><path stroke="#46ba7d" d="M0,13.7L0,-7.7C0,-11,2.7,-13.7,6,-13.7L13.5,-13.7" ed:parentid="133" id="146" ed:tosuperid="145" fill="none" transform="matrix(1,0,0,1,414.96,578.44)" stroke-linejoin="round" stroke-linecap="round"/><path stroke="#46ba7d" d="M0,-17.9L0,11.9C0,15.2,2.7,17.9,6,17.9L13.5,17.9" ed:parentid="145" id="148" ed:tosuperid="147" fill="none" transform="matrix(1,0,0,1,600.36,582.62)" stroke-linejoin="round" stroke-linecap="round"/><path stroke="#46ba7d" d="M-13.5,17.9L0,17.9L0,-11.9C0,-15.2,2.7,-17.9,6,-17.9L13.5,-17.9" ed:parentid="145" id="150" ed:tosuperid="149" fill="none" transform="matrix(1,0,0,1,600.36,546.87)" stroke-linejoin="round" stroke-linecap="round"/><path stroke="#46ba7d" d="M0,-39.9L0,33.9C0,37.2,2.7,39.9,6,39.9L13.5,39.9" ed:parentid="133" id="152" ed:tosuperid="151" fill="none" transform="matrix(1,0,0,1,414.96,632.06)" stroke-linejoin="round" stroke-linecap="round"/><path stroke="#46ba7d" d="M-13.5,0L0,0C0,0,2.7,0,6,0L13.5,0" ed:parentid="151" id="154" ed:tosuperid="153" fill="none" transform="matrix(1,0,0,1,642.36,672)" stroke-linejoin="round" stroke-linecap="round"/><path stroke="#46ba7d" d="M0,-70.9L0,64.9C0,68.2,2.7,70.9,6,70.9L13.5,70.9" ed:parentid="133" id="156" ed:tosuperid="155" fill="none" transform="matrix(1,0,0,1,414.96,663.06)" stroke-linejoin="round" stroke-linecap="round"/><path stroke="#c393e1" d="M-54.9,-149.5C-43.8,-15.3,-9.3,176,64.8,176" stroke-width="3" ed:parentid="101" id="160" ed:tosuperid="159" fill="none" transform="matrix(1,0,0,1,154.27,767.41)" stroke-linejoin="round" stroke-linecap="round"/><path stroke="#c393e1" d="M-13.5,23.3L0,23.3L0,-17.3C0,-20.6,2.7,-23.3,6,-23.3L13.5,-23.3" ed:parentid="159" id="162" ed:tosuperid="161" fill="none" transform="matrix(1,0,0,1,341.56,920.06)" stroke-linejoin="round" stroke-linecap="round"/><path stroke="#c393e1" d="M-13.5,25.1L0,25.1L0,-19.1C0,-22.4,2.7,-25.1,6,-25.1L13.5,-25.1" ed:parentid="161" id="164" ed:tosuperid="163" fill="none" transform="matrix(1,0,0,1,414.96,871.62)" stroke-linejoin="round" stroke-linecap="round"/><path stroke="#c393e1" d="M0,8.4L0,-2.4C0,-5.7,2.7,-8.4,6,-8.4L13.5,-8.4" ed:parentid="161" id="166" ed:tosuperid="165" fill="none" transform="matrix(1,0,0,1,414.96,888.37)" stroke-linejoin="round" stroke-linecap="round"/><path stroke="#c393e1" d="M0,-8.4L0,2.4C0,5.7,2.7,8.4,6,8.4L13.5,8.4" ed:parentid="161" id="168" ed:tosuperid="167" fill="none" transform="matrix(1,0,0,1,414.96,905.12)" stroke-linejoin="round" stroke-linecap="round"/><path stroke="#c393e1" d="M0,-25.1L0,19.1C0,22.4,2.7,25.1,6,25.1L13.5,25.1" ed:parentid="161" id="170" ed:tosuperid="169" fill="none" transform="matrix(1,0,0,1,414.96,921.87)" stroke-linejoin="round" stroke-linecap="round"/><path stroke="#c393e1" d="M0,-23.3L0,17.3C0,20.6,2.7,23.3,6,23.3L13.5,23.3" ed:parentid="159" id="172" ed:tosuperid="171" fill="none" transform="matrix(1,0,0,1,341.56,966.69)" stroke-linejoin="round" stroke-linecap="round"/><path stroke="#c393e1" d="M-13.5,0L0,0C0,0,2.7,0,6,0L13.5,0" ed:parentid="171" id="174" ed:tosuperid="173" fill="none" transform="matrix(1,0,0,1,414.96,990)" stroke-linejoin="round" stroke-linecap="round"/><path stroke="#2faea9" d="M-58,-227.8C-47.4,-33.6,-12.3,254.3,64.8,254.3" stroke-width="3" ed:parentid="101" id="176" ed:tosuperid="175" fill="none" transform="matrix(1,0,0,1,154.27,845.78)" stroke-linejoin="round" stroke-linecap="round"/><path stroke="#2faea9" d="M-13.5,20.3L0,20.3L0,-14.3C0,-17.6,2.7,-20.3,6,-20.3L13.5,-20.3" ed:parentid="175" id="178" ed:tosuperid="177" fill="none" transform="matrix(1,0,0,1,341.56,1079.81)" stroke-linejoin="round" stroke-linecap="round"/><path stroke="#2faea9" d="M0,-20.3L0,14.3C0,17.6,2.7,20.3,6,20.3L13.5,20.3" ed:parentid="175" id="180" ed:tosuperid="179" fill="none" transform="matrix(1,0,0,1,341.56,1120.44)" stroke-linejoin="round" stroke-linecap="round"/><path stroke="#2faea9" d="M-13.5,0L0,0C0,0,2.7,0,6,0L13.5,0" ed:parentid="177" id="182" ed:tosuperid="181" fill="none" transform="matrix(1,0,0,1,414.96,1059.5)" stroke-linejoin="round" stroke-linecap="round"/><path stroke="#2faea9" d="M-13.5,23.9L0,23.9L0,-17.9C0,-21.2,2.7,-23.9,6,-23.9L13.5,-23.9" ed:parentid="179" id="184" ed:tosuperid="183" fill="none" transform="matrix(1,0,0,1,414.96,1116.87)" stroke-linejoin="round" stroke-linecap="round"/><path stroke="#2faea9" d="M0,2.4C0,-0.2,2.7,-2.4,6,-2.4L13.5,-2.4" ed:parentid="179" id="186" ed:tosuperid="185" fill="none" transform="matrix(1,0,0,1,414.96,1138.37)" stroke-linejoin="round" stroke-linecap="round"/><path stroke="#2faea9" d="M0,-23.9L0,17.9C0,21.2,2.7,23.9,6,23.9L13.5,23.9" ed:parentid="179" id="188" ed:tosuperid="187" fill="none" transform="matrix(1,0,0,1,414.96,1164.62)" stroke-linejoin="round" stroke-linecap="round"/><path stroke="#ff7c78" d="M-13.5,0L0,0C0,0,2.7,0,6,0L13.5,0" ed:parentid="131" id="229" ed:tosuperid="228" fill="none" transform="matrix(1,0,0,1,642.36,367)" stroke-linejoin="round" stroke-linecap="round"/><g ed:width="133.022" ed:layout="rightmap" ed:topictype="mainidea" id="101" transform="matrix(1,0,0,1,23,564.94)" ed:height="53"><path stroke="#24405d" d="M41.7,0L133,0L133,23.3L133,29.7C133,42.6,122.6,53,111.8,53L41.7,53L0,53L0,23.3C0,10.4,10.4,0,21.2,0L41.7,0z" stroke-width="3" fill="#ffffff" stroke-linejoin="round"/><text class="st1"><tspan x="19" style="white-space:pre" y="30">HTTP的发展史</tspan></text></g><g ed:width="109.037" ed:parentid="101" id="102" transform="matrix(1,0,0,1,219.02,63.25)" ed:height="39"><path stroke="#44488c" d="M34.2,0L109,0L109,17.1L109,21.9C109,31.3,101.4,39,93.4,39L34.2,39L0,39L0,17.1C0,7.7,7.7,0,15.6,0L34.2,0z" stroke-width="3" fill="#ffffff" stroke-linejoin="round"/><text class="st1"><tspan x="18" style="white-space:pre" y="23">HTTP / 0.9</tspan></text></g><g ed:width="109.037" ed:parentid="101" id="104" transform="matrix(1,0,0,1,219.02,250.5)" ed:height="39"><path stroke="#ff7c78" d="M34.2,0L109,0L109,17.1L109,21.9C109,31.3,101.4,39,93.4,39L34.2,39L0,39L0,17.1C0,7.7,7.7,0,15.6,0L34.2,0z" stroke-width="3" fill="#ffffff" stroke-linejoin="round"/><text class="st1"><tspan x="18" style="white-space:pre" y="23">HTTP / 1.0</tspan></text></g><g ed:width="109.037" ed:parentid="101" id="106" transform="matrix(1,0,0,1,219.02,665.07)" ed:height="39"><path stroke="#46ba7d" d="M34.2,0L109,0L109,17.1L109,21.9C109,31.3,101.4,39,93.4,39L34.2,39L0,39L0,17.1C0,7.7,7.7,0,15.6,0L34.2,0z" stroke-width="3" fill="#ffffff" stroke-linejoin="round"/><text class="st1"><tspan x="18" style="white-space:pre" y="23">HTTP / 1.1</tspan></text></g><g ed:width="115.494" ed:parentid="102" id="108" transform="matrix(1,0,0,1,355.06,19)" ed:height="27"><path stroke="#44488c" d="M36.2,0L115.5,0L115.5,11.9L115.5,15.1C115.5,21.7,110.2,27,104.7,27L36.2,27L0,27L0,11.9C0,5.3,5.3,0,10.8,0L36.2,0z" fill="none" stroke-linejoin="round"/><text class="st1"><tspan x="8" style="white-space:pre" y="17">诞生 ： 1991年</tspan></text></g><g ed:width="394.087" ed:parentid="102" id="110" transform="matrix(1,0,0,1,355.06,52.5)" ed:height="27"><path stroke="#44488c" d="M123.6,0L394.1,0L394.1,11.9L394.1,15.1C394.1,21.7,388.8,27,383.3,27L123.6,27L0,27L0,11.9C0,5.3,5.3,0,10.8,0L123.6,0z" fill="none" stroke-linejoin="round"/><text class="st1"><tspan x="8" style="white-space:pre" y="17">主要用于学术交流，用来在网络之间传递HTML超文本的内容</tspan></text></g><g ed:width="46.4" ed:parentid="102" id="112" transform="matrix(1,0,0,1,355.06,119.5)" ed:height="27"><path stroke="#44488c" d="M14.6,0L46.4,0L46.4,11.9L46.4,15.1C46.4,21.7,41.1,27,35.6,27L14.6,27L0,27L0,11.9C0,5.3,5.3,0,10.8,0L14.6,0z" fill="none" stroke-linejoin="round"/><text class="st1"><tspan x="8" style="white-space:pre" y="17">特点</tspan></text></g><g ed:width="239.962" ed:parentid="112" id="114" transform="matrix(1,0,0,1,428.46,86)" ed:height="27"><path stroke="#44488c" d="M75.3,0L240,0L240,11.9L240,15.1C240,21.7,234.7,27,229.2,27L75.3,27L0,27L0,11.9C0,5.3,5.3,0,10.8,0L75.3,0z" fill="none" stroke-linejoin="round"/><text class="st1"><tspan x="7" style="white-space:pre" y="17">1.只有请求行，没有请求头和请求体</tspan></text></g><g ed:width="183.962" ed:parentid="112" id="116" transform="matrix(1,0,0,1,428.46,119.5)" ed:height="27"><path stroke="#44488c" d="M57.7,0L184,0L184,11.9L184,15.1C184,21.7,178.7,27,173.2,27L57.7,27L0,27L0,11.9C0,5.3,5.3,0,10.8,0L57.7,0z" fill="none" stroke-linejoin="round"/><text class="st1"><tspan x="7" style="white-space:pre" y="17">2.服务器也没有响应头信息</tspan></text></g><g ed:width="191.462" ed:parentid="112" id="119" transform="matrix(1,0,0,1,428.46,153)" ed:height="27"><path stroke="#44488c" d="M60.1,0L191.5,0L191.5,11.9L191.5,15.1C191.5,21.7,186.2,27,180.7,27L60.1,27L0,27L0,11.9C0,5.3,5.3,0,10.8,0L60.1,0z" fill="none" stroke-linejoin="round"/><text class="st1"><tspan x="7" style="white-space:pre" y="17">3.以ASCII字符流来传输数据</tspan></text></g><g ed:width="242.4" ed:parentid="104" id="121" transform="matrix(1,0,0,1,355.06,213)" ed:height="27"><path stroke="#ff7c78" d="M76,0L242.4,0L242.4,11.9L242.4,15.1C242.4,21.7,237.1,27,231.6,27L76,27L0,27L0,11.9C0,5.3,5.3,0,10.8,0L76,0z" fill="none" stroke-linejoin="round"/><text class="st1"><tspan x="8" style="white-space:pre" y="17">核心诉求：支持多种类型的文件下载</tspan></text></g><g ed:width="46.4" ed:parentid="104" id="123" transform="matrix(1,0,0,1,355.06,300)" ed:height="27"><path stroke="#ff7c78" d="M14.6,0L46.4,0L46.4,11.9L46.4,15.1C46.4,21.7,41.1,27,35.6,27L14.6,27L0,27L0,11.9C0,5.3,5.3,0,10.8,0L14.6,0z" fill="none" stroke-linejoin="round"/><text class="st1"><tspan x="8" style="white-space:pre" y="17">改进</tspan></text></g><g ed:width="158.4" ed:parentid="123" id="125" transform="matrix(1,0,0,1,428.46,246.5)" ed:height="27"><path stroke="#ff7c78" d="M49.7,0L158.4,0L158.4,11.9L158.4,15.1C158.4,21.7,153.1,27,147.6,27L49.7,27L0,27L0,11.9C0,5.3,5.3,0,10.8,0L49.7,0z" fill="none" stroke-linejoin="round"/><text class="st1"><tspan x="8" style="white-space:pre" y="17">引入了请求头和响应头</tspan></text></g><g ed:width="88.40000000000001" ed:parentid="123" id="127" transform="matrix(1,0,0,1,428.46,280)" ed:height="27"><path stroke="#ff7c78" d="M27.7,0L88.4,0L88.4,11.9L88.4,15.1C88.4,21.7,83.1,27,77.6,27L27.7,27L0,27L0,11.9C0,5.3,5.3,0,10.8,0L27.7,0z" fill="none" stroke-linejoin="round"/><text class="st1"><tspan x="8" style="white-space:pre" y="17">增加状态码</tspan></text></g><g ed:width="112.713" ed:parentid="123" id="129" transform="matrix(1,0,0,1,428.45,313.5)" ed:height="27"><path stroke="#ff7c78" d="M35.4,0L112.7,0L112.7,11.9L112.7,15.1C112.7,21.7,107.4,27,101.9,27L35.4,27L0,27L0,11.9C0,5.3,5.3,0,10.8,0L35.4,0z" fill="none" stroke-linejoin="round"/><text class="st1"><tspan x="8" style="white-space:pre" y="17">引入cache机制</tspan></text></g><g ed:width="200.4" ed:parentid="123" id="131" transform="matrix(1,0,0,1,428.46,353.5)" ed:height="27"><path stroke="#ff7c78" d="M62.9,0L200.4,0L200.4,11.9L200.4,15.1C200.4,21.7,195.1,27,189.6,27L62.9,27L0,27L0,11.9C0,5.3,5.3,0,10.8,0L62.9,0z" fill="none" stroke-linejoin="round"/><text class="st1"><tspan x="8" style="white-space:pre" y="17">请求头中加入了用户代理字段</tspan></text></g><g ed:width="46.4" ed:parentid="106" id="133" transform="matrix(1,0,0,1,355.06,578.63)" ed:height="27"><path stroke="#46ba7d" d="M14.6,0L46.4,0L46.4,11.9L46.4,15.1C46.4,21.7,41.1,27,35.6,27L14.6,27L0,27L0,11.9C0,5.3,5.3,0,10.8,0L14.6,0z" fill="none" stroke-linejoin="round"/><text class="st1"><tspan x="8" style="white-space:pre" y="17">改进</tspan></text></g><g ed:width="158.4" ed:parentid="133" id="135" transform="matrix(1,0,0,1,428.46,436.75)" ed:height="27"><path stroke="#46ba7d" d="M49.7,0L158.4,0L158.4,11.9L158.4,15.1C158.4,21.7,153.1,27,147.6,27L49.7,27L0,27L0,11.9C0,5.3,5.3,0,10.8,0L49.7,0z" fill="none" stroke-linejoin="round"/><text class="st1"><tspan x="8" style="white-space:pre" y="17">增加了持久连接的方法</tspan></text></g><g ed:width="317.759" ed:parentid="135" id="137" transform="matrix(1,0,0,1,613.86,420)" ed:height="27"><path stroke="#46ba7d" d="M99.7,0L317.8,0L317.8,11.9L317.8,15.1C317.8,21.7,312.5,27,307,27L99.7,27L0,27L0,11.9C0,5.3,5.3,0,10.8,0L99.7,0z" fill="none" stroke-linejoin="round"/><text class="st1"><tspan x="8" style="white-space:pre" y="17">特点：在一个TCP连接上可以传输多个HTTP请求</tspan></text></g><g ed:width="375.822" ed:parentid="135" id="139" transform="matrix(1,0,0,1,613.86,453.5)" ed:height="27"><path stroke="#46ba7d" d="M117.9,0L375.8,0L375.8,11.9L375.8,15.1C375.8,21.7,370.5,27,365,27L117.9,27L0,27L0,11.9C0,5.3,5.3,0,10.8,0L117.9,0z" fill="none" stroke-linejoin="round"/><text class="st1"><tspan x="8" style="white-space:pre" y="17">好处：减少了服务器的负担，并提升整体HTTP的请求时长</tspan></text></g><g ed:width="46.4" ed:parentid="106" id="141" transform="matrix(1,0,0,1,355.06,763.5)" ed:height="27"><path stroke="#46ba7d" d="M14.6,0L46.4,0L46.4,11.9L46.4,15.1C46.4,21.7,41.1,27,35.6,27L14.6,27L0,27L0,11.9C0,5.3,5.3,0,10.8,0L14.6,0z" fill="none" stroke-linejoin="round"/><text class="st1"><tspan x="8" style="white-space:pre" y="17">不足</tspan></text></g><g ed:width="525.8" ed:parentid="141" id="143" transform="matrix(1,0,0,1,428.46,754)" ed:height="46"><path stroke="#46ba7d" d="M165,0L525.8,0L525.8,20.2L525.8,25.8C525.8,37,516.8,46,507.4,46L165,46L0,46L0,20.2C0,9,9,0,18.4,0L165,0z" fill="none" stroke-linejoin="round"/><text class="st1"><tspan x="13" style="white-space:pre" y="17">TCP通道的某个请求没有及时返回，后面的请求就会阻塞，这就是著名的队头堵</tspan><tspan x="13" style="white-space:pre" y="36">塞问题</tspan></text></g><g ed:width="158.4" ed:parentid="133" id="145" transform="matrix(1,0,0,1,428.46,551.25)" ed:height="27"><path stroke="#46ba7d" d="M49.7,0L158.4,0L158.4,11.9L158.4,15.1C158.4,21.7,153.1,27,147.6,27L49.7,27L0,27L0,11.9C0,5.3,5.3,0,10.8,0L49.7,0z" fill="none" stroke-linejoin="round"/><text class="st1"><tspan x="8" style="white-space:pre" y="17">提供对虚拟主机的支持</tspan></text></g><g ed:width="425.191" ed:parentid="145" id="147" transform="matrix(1,0,0,1,613.86,577.5)" ed:height="46"><path stroke="#46ba7d" d="M133.4,0L425.2,0L425.2,20.2L425.2,25.8C425.2,37,416.1,46,406.8,46L133.4,46L0,46L0,20.2C0,9,9,0,18.4,0L133.4,0z" fill="none" stroke-linejoin="round"/><text class="st1"><tspan x="13" style="white-space:pre" y="17">特点：增加了Host字段，表示当前的域名地址，这样服务器可以</tspan><tspan x="13" style="white-space:pre" y="36">根据不同的Host值做不同的处理</tspan></text></g><g ed:width="472.6" ed:parentid="145" id="149" transform="matrix(1,0,0,1,613.86,487)" ed:height="84"><path stroke="#46ba7d" d="M148.3,0L472.6,0L472.6,36.9L472.6,47.1C472.6,67.5,456.1,84,439,84L148.3,84L0,84L0,36.9C0,16.5,16.5,0,33.6,0L148.3,0z" fill="none" stroke-linejoin="round"/><text class="st1"><tspan x="25" style="white-space:pre" y="17">背景：在HTTP / 1.0 中，每个域名绑定了一个唯一的IP地址，因此</tspan><tspan x="25" style="white-space:pre" y="36">一个服务器只能支持一个域名。但是随着虚拟主机技术的发展，需要</tspan><tspan x="25" style="white-space:pre" y="55">实现在一台物理主机上绑定多个虚拟主机，每个虚拟主机都有自己的</tspan><tspan x="25" style="white-space:pre" y="74">单独的域名，这些单独的域名都公用一个IP地址。</tspan></text></g><g ed:width="200.4" ed:parentid="133" id="151" transform="matrix(1,0,0,1,428.46,658.5)" ed:height="27"><path stroke="#46ba7d" d="M62.9,0L200.4,0L200.4,11.9L200.4,15.1C200.4,21.7,195.1,27,189.6,27L62.9,27L0,27L0,11.9C0,5.3,5.3,0,10.8,0L62.9,0z" fill="none" stroke-linejoin="round"/><text class="st1"><tspan x="8" style="white-space:pre" y="17">对动态生成的内容提供了支持</tspan></text></g><g ed:width="458.6" ed:parentid="151" id="153" transform="matrix(1,0,0,1,655.86,630)" ed:height="84"><path stroke="#46ba7d" d="M143.9,0L458.6,0L458.6,36.9L458.6,47.1C458.6,67.5,442.1,84,425,84L143.9,84L0,84L0,36.9C0,16.5,16.5,0,33.6,0L143.9,0z" fill="none" stroke-linejoin="round"/><text class="st1"><tspan x="25" style="white-space:pre" y="17">引入Chunk transfer机制。服务器会将数据分割成若干个任意</tspan><tspan x="25" style="white-space:pre" y="36">大小的数据块，每个数据块发送时会附上上个数据块的长度，</tspan><tspan x="25" style="white-space:pre" y="55">最后使用一个零长度的块作为发送数据完成的标志。这样就提供了</tspan><tspan x="25" style="white-space:pre" y="74">对动态内容的支持</tspan></text></g><g ed:width="202.462" ed:parentid="133" id="155" transform="matrix(1,0,0,1,428.46,720.5)" ed:height="27"><path stroke="#46ba7d" d="M63.5,0L202.5,0L202.5,11.9L202.5,15.1C202.5,21.7,197.2,27,191.7,27L63.5,27L0,27L0,11.9C0,5.3,5.3,0,10.8,0L63.5,0z" fill="none" stroke-linejoin="round"/><text class="st1"><tspan x="7" style="white-space:pre" y="17">引入客户端cookie、安全机制</tspan></text></g><g ed:width="109.037" ed:parentid="101" id="159" transform="matrix(1,0,0,1,219.02,923.88)" ed:height="39"><path stroke="#c393e1" d="M34.2,0L109,0L109,17.1L109,21.9C109,31.3,101.4,39,93.4,39L34.2,39L0,39L0,17.1C0,7.7,7.7,0,15.6,0L34.2,0z" stroke-width="3" fill="#ffffff" stroke-linejoin="round"/><text class="st1"><tspan x="18" style="white-space:pre" y="23">HTTP / 2.0</tspan></text></g><g ed:width="46.4" ed:parentid="159" id="161" transform="matrix(1,0,0,1,355.06,883.25)" ed:height="27"><path stroke="#c393e1" d="M14.6,0L46.4,0L46.4,11.9L46.4,15.1C46.4,21.7,41.1,27,35.6,27L14.6,27L0,27L0,11.9C0,5.3,5.3,0,10.8,0L14.6,0z" fill="none" stroke-linejoin="round"/><text class="st1"><tspan x="8" style="white-space:pre" y="17">改进</tspan></text></g><g ed:width="228.4" ed:parentid="161" id="163" transform="matrix(1,0,0,1,428.46,833)" ed:height="27"><path stroke="#c393e1" d="M71.7,0L228.4,0L228.4,11.9L228.4,15.1C228.4,21.7,223.1,27,217.6,27L71.7,27L0,27L0,11.9C0,5.3,5.3,0,10.8,0L71.7,0z" fill="none" stroke-linejoin="round"/><text class="st1"><tspan x="8" style="white-space:pre" y="17">引入二进制分帧层，支持多路复用</tspan></text></g><g ed:width="209.744" ed:parentid="161" id="165" transform="matrix(1,0,0,1,428.46,866.5)" ed:height="27"><path stroke="#c393e1" d="M65.8,0L209.7,0L209.7,11.9L209.7,15.1C209.7,21.7,204.4,27,198.9,27L65.8,27L0,27L0,11.9C0,5.3,5.3,0,10.8,0L65.8,0z" fill="none" stroke-linejoin="round"/><text class="st1"><tspan x="8" style="white-space:pre" y="17">支持头部(请求头和响应头)压缩</tspan></text></g><g ed:width="158.4" ed:parentid="161" id="167" transform="matrix(1,0,0,1,428.46,900)" ed:height="27"><path stroke="#c393e1" d="M49.7,0L158.4,0L158.4,11.9L158.4,15.1C158.4,21.7,153.1,27,147.6,27L49.7,27L0,27L0,11.9C0,5.3,5.3,0,10.8,0L49.7,0z" fill="none" stroke-linejoin="round"/><text class="st1"><tspan x="8" style="white-space:pre" y="17">可以设置请求的优先级</tspan></text></g><g ed:width="88.40000000000001" ed:parentid="161" id="169" transform="matrix(1,0,0,1,428.46,933.5)" ed:height="27"><path stroke="#c393e1" d="M27.7,0L88.4,0L88.4,11.9L88.4,15.1C88.4,21.7,83.1,27,77.6,27L27.7,27L0,27L0,11.9C0,5.3,5.3,0,10.8,0L27.7,0z" fill="none" stroke-linejoin="round"/><text class="st1"><tspan x="8" style="white-space:pre" y="17">服务器推送</tspan></text></g><g ed:width="46.4" ed:parentid="159" id="171" transform="matrix(1,0,0,1,355.06,976.5)" ed:height="27"><path stroke="#c393e1" d="M14.6,0L46.4,0L46.4,11.9L46.4,15.1C46.4,21.7,41.1,27,35.6,27L14.6,27L0,27L0,11.9C0,5.3,5.3,0,10.8,0L14.6,0z" fill="none" stroke-linejoin="round"/><text class="st1"><tspan x="8" style="white-space:pre" y="17">不足</tspan></text></g><g ed:width="525.8" ed:parentid="171" id="173" transform="matrix(1,0,0,1,428.46,967)" ed:height="46"><path stroke="#c393e1" d="M165,0L525.8,0L525.8,20.2L525.8,25.8C525.8,37,516.8,46,507.4,46L165,46L0,46L0,20.2C0,9,9,0,18.4,0L165,0z" fill="none" stroke-linejoin="round"/><text class="st1"><tspan x="13" style="white-space:pre" y="17">HTTP / 2.0 依然是基于TCP协议的，而TCP协议依然存在数据包级别的队头堵塞</tspan><tspan x="13" style="white-space:pre" y="36">问题</tspan></text></g><g ed:width="109.037" ed:parentid="101" id="175" transform="matrix(1,0,0,1,219.02,1080.63)" ed:height="39"><path stroke="#2faea9" d="M34.2,0L109,0L109,17.1L109,21.9C109,31.3,101.4,39,93.4,39L34.2,39L0,39L0,17.1C0,7.7,7.7,0,15.6,0L34.2,0z" stroke-width="3" fill="#ffffff" stroke-linejoin="round"/><text class="st1"><tspan x="18" style="white-space:pre" y="23">HTTP / 3.0</tspan></text></g><g ed:width="46.4" ed:parentid="175" id="177" transform="matrix(1,0,0,1,355.06,1046)" ed:height="27"><path stroke="#2faea9" d="M14.6,0L46.4,0L46.4,11.9L46.4,15.1C46.4,21.7,41.1,27,35.6,27L14.6,27L0,27L0,11.9C0,5.3,5.3,0,10.8,0L14.6,0z" fill="none" stroke-linejoin="round"/><text class="st1"><tspan x="8" style="white-space:pre" y="17">改进</tspan></text></g><g ed:width="46.4" ed:parentid="175" id="179" transform="matrix(1,0,0,1,355.06,1127.25)" ed:height="27"><path stroke="#2faea9" d="M14.6,0L46.4,0L46.4,11.9L46.4,15.1C46.4,21.7,41.1,27,35.6,27L14.6,27L0,27L0,11.9C0,5.3,5.3,0,10.8,0L14.6,0z" fill="none" stroke-linejoin="round"/><text class="st1"><tspan x="8" style="white-space:pre" y="17">挑战</tspan></text></g><g ed:width="501.306" ed:parentid="177" id="181" transform="matrix(1,0,0,1,428.46,1046)" ed:height="27"><path stroke="#2faea9" d="M157.3,0L501.3,0L501.3,11.9L501.3,15.1C501.3,21.7,496,27,490.5,27L157.3,27L0,27L0,11.9C0,5.3,5.3,0,10.8,0L157.3,0z" fill="none" stroke-linejoin="round"/><text class="st1"><tspan x="7" style="white-space:pre" y="17">基于UDP实现了类似于TCP的多路数据流、传输可靠性等功能，称为QUIC协议</tspan></text></g><g ed:width="413.978" ed:parentid="179" id="183" transform="matrix(1,0,0,1,428.46,1079.5)" ed:height="27"><path stroke="#2faea9" d="M129.9,0L414,0L414,11.9L414,15.1C414,21.7,408.7,27,403.2,27L129.9,27L0,27L0,11.9C0,5.3,5.3,0,10.8,0L129.9,0z" fill="none" stroke-linejoin="round"/><text class="st1"><tspan x="7" style="white-space:pre" y="17">目前服务器和浏览器端都没有对HTTP / 3.0 提供比较完整的支持</tspan></text></g><g ed:width="525.8" ed:parentid="179" id="185" transform="matrix(1,0,0,1,428.46,1113)" ed:height="46"><path stroke="#2faea9" d="M165,0L525.8,0L525.8,20.2L525.8,25.8C525.8,37,516.8,46,507.4,46L165,46L0,46L0,20.2C0,9,9,0,18.4,0L165,0z" fill="none" stroke-linejoin="round"/><text class="st1"><tspan x="13" style="white-space:pre" y="17">部署HTTP / 3.0 也存在非常大的问题。因为系统内核对UDP的优化远远没有达到</tspan><tspan x="13" style="white-space:pre" y="36">TCP的优化程度。</tspan></text></g><g ed:width="525.8" ed:parentid="179" id="187" transform="matrix(1,0,0,1,428.46,1165.5)" ed:height="46"><path stroke="#2faea9" d="M165,0L525.8,0L525.8,20.2L525.8,25.8C525.8,37,516.8,46,507.4,46L165,46L0,46L0,20.2C0,9,9,0,18.4,0L165,0z" fill="none" stroke-linejoin="round"/><text class="st1"><tspan x="13" style="white-space:pre" y="17">中间设备僵化的问题。这些设备对UDP的优化程度远远低于TCP，据统计，使用</tspan><tspan x="13" style="white-space:pre" y="36">QUIC协议时，大约有3% ~ 7%的丢包率。</tspan></text></g><g ed:width="530.84" ed:parentid="131" id="228" transform="matrix(1,0,0,1,655.86,347)" ed:height="40"><path stroke="#ff7c78" d="M20,0L510.8,0C521.9,0,530.8,9,530.8,20C530.8,31,521.9,40,510.8,40L20,40C9,40,0,31,0,20C0,9,9,0,20,0z" fill="none" stroke-linejoin="round"/><text class="st2"><tspan x="16" style="white-space:pre" y="15">'Use-Agent'即用户代理，简称'UA'，它是一个特殊字符串头。网站服务器通过识</tspan><tspan x="16" style="white-space:pre" y="33">别'UA'来确定用户所使用的操作系统版本、CPU类型、浏览器版本等信息。</tspan></text></g></svg>